<mxfile host="Electron" agent="Mozilla/5.0 (X11; Linux x86_64) AppleWebKit/537.36 (KHTML, like Gecko) draw.io/25.0.1 Chrome/128.0.6613.186 Electron/32.2.6 Safari/537.36" version="25.0.1" pages="3">
  <diagram name="Page-1" id="Ouo7YDjwd7HSpIPFlS7V">
    <mxGraphModel dx="1055" dy="1607" grid="1" gridSize="10" guides="1" tooltips="1" connect="1" arrows="1" fold="1" page="1" pageScale="1" pageWidth="1100" pageHeight="850" math="0" shadow="0">
      <root>
        <mxCell id="0" />
        <mxCell id="1" parent="0" />
        <mxCell id="ScYDh5Pu9ctgfWWhyi0j-16" value="IIS" style="rhombus;whiteSpace=wrap;html=1;" vertex="1" parent="1">
          <mxGeometry x="710" y="90" width="80" height="80" as="geometry" />
        </mxCell>
        <mxCell id="ScYDh5Pu9ctgfWWhyi0j-1" value="Actor" style="shape=umlActor;verticalLabelPosition=bottom;verticalAlign=top;html=1;outlineConnect=0;" vertex="1" parent="1">
          <mxGeometry x="100" y="225" width="30" height="60" as="geometry" />
        </mxCell>
        <mxCell id="ScYDh5Pu9ctgfWWhyi0j-2" value="http Request&lt;br&gt;&lt;div&gt;&lt;br&gt;url&amp;nbsp; === domain:port / slug&lt;br&gt;{dirName}/{dirName}/{fileName}&lt;br&gt;&lt;br&gt;Mehtod: GET || POST&amp;nbsp;&lt;br&gt;&lt;br&gt;params (?page=1&amp;amp;perPage=50)&lt;br&gt;body&lt;/div&gt;" style="rounded=1;whiteSpace=wrap;html=1;" vertex="1" parent="1">
          <mxGeometry x="180" y="180" width="350" height="150" as="geometry" />
        </mxCell>
        <mxCell id="ScYDh5Pu9ctgfWWhyi0j-6" style="edgeStyle=orthogonalEdgeStyle;rounded=0;orthogonalLoop=1;jettySize=auto;html=1;" edge="1" parent="1" source="ScYDh5Pu9ctgfWWhyi0j-3" target="ScYDh5Pu9ctgfWWhyi0j-5">
          <mxGeometry relative="1" as="geometry" />
        </mxCell>
        <mxCell id="ScYDh5Pu9ctgfWWhyi0j-3" value="NodeJS:&lt;br&gt;&lt;br&gt;http -&amp;gt; express" style="rhombus;whiteSpace=wrap;html=1;" vertex="1" parent="1">
          <mxGeometry x="600" y="-530" width="160" height="160" as="geometry" />
        </mxCell>
        <mxCell id="ScYDh5Pu9ctgfWWhyi0j-13" style="edgeStyle=orthogonalEdgeStyle;rounded=0;orthogonalLoop=1;jettySize=auto;html=1;entryX=0;entryY=0.5;entryDx=0;entryDy=0;" edge="1" parent="1" source="ScYDh5Pu9ctgfWWhyi0j-4" target="ScYDh5Pu9ctgfWWhyi0j-7">
          <mxGeometry relative="1" as="geometry" />
        </mxCell>
        <mxCell id="ScYDh5Pu9ctgfWWhyi0j-4" value="C# Aspt.Net:&lt;br&gt;&lt;br&gt;HTTP Listener&lt;br&gt;-&amp;gt; IIS" style="rhombus;whiteSpace=wrap;html=1;" vertex="1" parent="1">
          <mxGeometry x="600" y="-295" width="160" height="160" as="geometry" />
        </mxCell>
        <mxCell id="ScYDh5Pu9ctgfWWhyi0j-5" value="Thread" style="rounded=1;whiteSpace=wrap;html=1;" vertex="1" parent="1">
          <mxGeometry x="810" y="-480" width="120" height="60" as="geometry" />
        </mxCell>
        <mxCell id="ScYDh5Pu9ctgfWWhyi0j-7" value="Thread" style="rounded=1;whiteSpace=wrap;html=1;" vertex="1" parent="1">
          <mxGeometry x="810" y="-300" width="120" height="60" as="geometry" />
        </mxCell>
        <mxCell id="ScYDh5Pu9ctgfWWhyi0j-8" value="Thread" style="rounded=1;whiteSpace=wrap;html=1;" vertex="1" parent="1">
          <mxGeometry x="820" y="-280" width="120" height="60" as="geometry" />
        </mxCell>
        <mxCell id="ScYDh5Pu9ctgfWWhyi0j-9" value="Thread" style="rounded=1;whiteSpace=wrap;html=1;" vertex="1" parent="1">
          <mxGeometry x="830" y="-270" width="120" height="60" as="geometry" />
        </mxCell>
        <mxCell id="ScYDh5Pu9ctgfWWhyi0j-10" value="Thread" style="rounded=1;whiteSpace=wrap;html=1;" vertex="1" parent="1">
          <mxGeometry x="840" y="-260" width="120" height="60" as="geometry" />
        </mxCell>
        <mxCell id="ScYDh5Pu9ctgfWWhyi0j-11" value="Thread" style="rounded=1;whiteSpace=wrap;html=1;" vertex="1" parent="1">
          <mxGeometry x="850" y="-250" width="120" height="60" as="geometry" />
        </mxCell>
        <mxCell id="ScYDh5Pu9ctgfWWhyi0j-12" value="Thread" style="rounded=1;whiteSpace=wrap;html=1;" vertex="1" parent="1">
          <mxGeometry x="860" y="-245" width="120" height="60" as="geometry" />
        </mxCell>
        <mxCell id="ScYDh5Pu9ctgfWWhyi0j-14" value="http Request&lt;br&gt;&lt;div&gt;&lt;br&gt;url&amp;nbsp; === domain:port / slug&lt;br&gt;{ControllerName}/{ActionName}&lt;br&gt;&lt;br&gt;Mehtod: GET || POST || PUT || DELETE ... &lt;br&gt;++ OPTIONS || PATCH ...&lt;br&gt;&lt;br&gt;params (?page=1&amp;amp;perPage=50)&lt;br&gt;body&lt;/div&gt;" style="rounded=1;whiteSpace=wrap;html=1;" vertex="1" parent="1">
          <mxGeometry x="180" y="-60" width="350" height="150" as="geometry" />
        </mxCell>
        <mxCell id="ScYDh5Pu9ctgfWWhyi0j-19" style="edgeStyle=orthogonalEdgeStyle;rounded=0;orthogonalLoop=1;jettySize=auto;html=1;entryX=1;entryY=0.5;entryDx=0;entryDy=0;" edge="1" parent="1" source="ScYDh5Pu9ctgfWWhyi0j-15" target="ScYDh5Pu9ctgfWWhyi0j-2">
          <mxGeometry relative="1" as="geometry" />
        </mxCell>
        <mxCell id="ScYDh5Pu9ctgfWWhyi0j-21" style="edgeStyle=orthogonalEdgeStyle;rounded=0;orthogonalLoop=1;jettySize=auto;html=1;entryX=0.5;entryY=0;entryDx=0;entryDy=0;" edge="1" parent="1" source="ScYDh5Pu9ctgfWWhyi0j-23" target="ScYDh5Pu9ctgfWWhyi0j-20">
          <mxGeometry relative="1" as="geometry" />
        </mxCell>
        <mxCell id="ScYDh5Pu9ctgfWWhyi0j-15" value="NginX&lt;br&gt;Apache" style="rhombus;whiteSpace=wrap;html=1;" vertex="1" parent="1">
          <mxGeometry x="690" y="130" width="80" height="80" as="geometry" />
        </mxCell>
        <mxCell id="ScYDh5Pu9ctgfWWhyi0j-18" style="edgeStyle=orthogonalEdgeStyle;rounded=0;orthogonalLoop=1;jettySize=auto;html=1;entryX=0.5;entryY=0;entryDx=0;entryDy=0;" edge="1" parent="1" source="ScYDh5Pu9ctgfWWhyi0j-17" target="ScYDh5Pu9ctgfWWhyi0j-16">
          <mxGeometry relative="1" as="geometry" />
        </mxCell>
        <mxCell id="ScYDh5Pu9ctgfWWhyi0j-17" value="html, css, js,&lt;br&gt;jpg, gif ..." style="rounded=1;whiteSpace=wrap;html=1;" vertex="1" parent="1">
          <mxGeometry x="920" y="40" width="120" height="40" as="geometry" />
        </mxCell>
        <mxCell id="ScYDh5Pu9ctgfWWhyi0j-25" style="edgeStyle=orthogonalEdgeStyle;rounded=0;orthogonalLoop=1;jettySize=auto;html=1;entryX=1;entryY=0.75;entryDx=0;entryDy=0;" edge="1" parent="1" source="ScYDh5Pu9ctgfWWhyi0j-20" target="ScYDh5Pu9ctgfWWhyi0j-2">
          <mxGeometry relative="1" as="geometry" />
        </mxCell>
        <mxCell id="ScYDh5Pu9ctgfWWhyi0j-20" value="Preprocessor" style="shape=process;whiteSpace=wrap;html=1;backgroundOutline=1;" vertex="1" parent="1">
          <mxGeometry x="920" y="380" width="120" height="60" as="geometry" />
        </mxCell>
        <mxCell id="ScYDh5Pu9ctgfWWhyi0j-26" value="" style="edgeStyle=orthogonalEdgeStyle;rounded=0;orthogonalLoop=1;jettySize=auto;html=1;entryX=0.5;entryY=0;entryDx=0;entryDy=0;" edge="1" parent="1" source="ScYDh5Pu9ctgfWWhyi0j-15" target="ScYDh5Pu9ctgfWWhyi0j-23">
          <mxGeometry relative="1" as="geometry">
            <mxPoint x="770" y="170" as="sourcePoint" />
            <mxPoint x="980" y="380" as="targetPoint" />
          </mxGeometry>
        </mxCell>
        <mxCell id="ScYDh5Pu9ctgfWWhyi0j-27" value="&amp;nbsp;php&amp;nbsp;" style="edgeLabel;html=1;align=center;verticalAlign=middle;resizable=0;points=[];" vertex="1" connectable="0" parent="ScYDh5Pu9ctgfWWhyi0j-26">
          <mxGeometry x="-0.2957" y="2" relative="1" as="geometry">
            <mxPoint as="offset" />
          </mxGeometry>
        </mxCell>
        <mxCell id="ScYDh5Pu9ctgfWWhyi0j-23" value="&amp;lt;?php&lt;br&gt;&lt;br&gt;echo &quot;Hello World&quot;;&lt;br&gt;&lt;br&gt;?&amp;gt;" style="shape=card;whiteSpace=wrap;html=1;" vertex="1" parent="1">
          <mxGeometry x="940" y="140" width="140" height="145" as="geometry" />
        </mxCell>
        <mxCell id="ScYDh5Pu9ctgfWWhyi0j-28" value="Hello World" style="shape=note;whiteSpace=wrap;html=1;backgroundOutline=1;darkOpacity=0.05;" vertex="1" parent="1">
          <mxGeometry x="680" y="260" width="80" height="100" as="geometry" />
        </mxCell>
      </root>
    </mxGraphModel>
  </diagram>
  <diagram id="Qa-ENLNJFiYEJqpYeVF9" name="Page-2">
    <mxGraphModel dx="873" dy="626" grid="1" gridSize="10" guides="1" tooltips="1" connect="1" arrows="1" fold="1" page="1" pageScale="1" pageWidth="1100" pageHeight="850" math="0" shadow="0">
      <root>
        <mxCell id="0" />
        <mxCell id="1" parent="0" />
        <mxCell id="WvE56XlIMm3ANGKWWeHD-1" value="Actor" style="shape=umlActor;verticalLabelPosition=bottom;verticalAlign=top;html=1;outlineConnect=0;" vertex="1" parent="1">
          <mxGeometry x="250" y="180" width="30" height="60" as="geometry" />
        </mxCell>
        <mxCell id="WvE56XlIMm3ANGKWWeHD-5" style="edgeStyle=orthogonalEdgeStyle;rounded=0;orthogonalLoop=1;jettySize=auto;html=1;entryX=0;entryY=0.5;entryDx=0;entryDy=0;" edge="1" parent="1" source="WvE56XlIMm3ANGKWWeHD-2" target="WvE56XlIMm3ANGKWWeHD-3">
          <mxGeometry relative="1" as="geometry" />
        </mxCell>
        <mxCell id="WvE56XlIMm3ANGKWWeHD-2" value="GET &amp;amp;var=val&lt;br&gt;&lt;br&gt;POST&lt;br&gt;(MultiPartFormData)&lt;br&gt;(files)" style="ellipse;shape=cloud;whiteSpace=wrap;html=1;" vertex="1" parent="1">
          <mxGeometry x="340" y="140" width="160" height="170" as="geometry" />
        </mxCell>
        <mxCell id="WvE56XlIMm3ANGKWWeHD-6" style="edgeStyle=orthogonalEdgeStyle;rounded=0;orthogonalLoop=1;jettySize=auto;html=1;entryX=0.5;entryY=0;entryDx=0;entryDy=0;" edge="1" parent="1" source="WvE56XlIMm3ANGKWWeHD-3" target="WvE56XlIMm3ANGKWWeHD-4">
          <mxGeometry relative="1" as="geometry" />
        </mxCell>
        <mxCell id="WvE56XlIMm3ANGKWWeHD-3" value="WebServer" style="rhombus;whiteSpace=wrap;html=1;" vertex="1" parent="1">
          <mxGeometry x="630" y="150" width="130" height="130" as="geometry" />
        </mxCell>
        <mxCell id="WvE56XlIMm3ANGKWWeHD-4" value="php" style="shape=process;whiteSpace=wrap;html=1;backgroundOutline=1;" vertex="1" parent="1">
          <mxGeometry x="635" y="360" width="120" height="60" as="geometry" />
        </mxCell>
      </root>
    </mxGraphModel>
  </diagram>
  <diagram id="hKUDB6gnpcs7JB0EWBuZ" name="Page-3">
    <mxGraphModel dx="1340" dy="517" grid="1" gridSize="10" guides="1" tooltips="1" connect="1" arrows="1" fold="1" page="1" pageScale="1" pageWidth="1100" pageHeight="850" math="0" shadow="0">
      <root>
        <mxCell id="0" />
        <mxCell id="1" parent="0" />
        <mxCell id="ZW87_tt0cUhbGKIDtFy5-1" value="Actor" style="shape=umlActor;verticalLabelPosition=bottom;verticalAlign=top;html=1;outlineConnect=0;" vertex="1" parent="1">
          <mxGeometry x="170" y="140" width="30" height="60" as="geometry" />
        </mxCell>
        <mxCell id="ZW87_tt0cUhbGKIDtFy5-5" style="edgeStyle=orthogonalEdgeStyle;rounded=0;orthogonalLoop=1;jettySize=auto;html=1;entryX=0;entryY=0.5;entryDx=0;entryDy=0;" edge="1" parent="1" source="ZW87_tt0cUhbGKIDtFy5-2" target="ZW87_tt0cUhbGKIDtFy5-3">
          <mxGeometry relative="1" as="geometry" />
        </mxCell>
        <mxCell id="ZW87_tt0cUhbGKIDtFy5-2" value="php" style="shape=process;whiteSpace=wrap;html=1;backgroundOutline=1;" vertex="1" parent="1">
          <mxGeometry x="320" y="120" width="120" height="60" as="geometry" />
        </mxCell>
        <mxCell id="ZW87_tt0cUhbGKIDtFy5-6" style="edgeStyle=orthogonalEdgeStyle;rounded=0;orthogonalLoop=1;jettySize=auto;html=1;" edge="1" parent="1" source="ZW87_tt0cUhbGKIDtFy5-3">
          <mxGeometry relative="1" as="geometry">
            <mxPoint x="710" y="110" as="targetPoint" />
          </mxGeometry>
        </mxCell>
        <mxCell id="ZW87_tt0cUhbGKIDtFy5-3" value="ext_mysqli" style="shape=process;whiteSpace=wrap;html=1;backgroundOutline=1;" vertex="1" parent="1">
          <mxGeometry x="560" y="80" width="120" height="60" as="geometry" />
        </mxCell>
        <mxCell id="ZW87_tt0cUhbGKIDtFy5-4" value="lib6" style="shape=process;whiteSpace=wrap;html=1;backgroundOutline=1;fillColor=#d80073;fontColor=#ffffff;strokeColor=#A50040;" vertex="1" parent="1">
          <mxGeometry x="720" y="80" width="120" height="60" as="geometry" />
        </mxCell>
        <mxCell id="ZW87_tt0cUhbGKIDtFy5-7" value="" style="rounded=0;whiteSpace=wrap;html=1;" vertex="1" parent="1">
          <mxGeometry x="440" y="310" width="560" height="280" as="geometry" />
        </mxCell>
        <mxCell id="ZW87_tt0cUhbGKIDtFy5-8" value="Docker" style="text;html=1;align=center;verticalAlign=middle;whiteSpace=wrap;rounded=0;" vertex="1" parent="1">
          <mxGeometry x="440" y="310" width="60" height="30" as="geometry" />
        </mxCell>
        <mxCell id="ZW87_tt0cUhbGKIDtFy5-12" style="edgeStyle=orthogonalEdgeStyle;rounded=0;orthogonalLoop=1;jettySize=auto;html=1;" edge="1" parent="1" source="ZW87_tt0cUhbGKIDtFy5-9" target="ZW87_tt0cUhbGKIDtFy5-11">
          <mxGeometry relative="1" as="geometry" />
        </mxCell>
        <mxCell id="ZW87_tt0cUhbGKIDtFy5-13" value="3306" style="edgeLabel;html=1;align=center;verticalAlign=middle;resizable=0;points=[];" vertex="1" connectable="0" parent="ZW87_tt0cUhbGKIDtFy5-12">
          <mxGeometry x="0.64" y="-1" relative="1" as="geometry">
            <mxPoint as="offset" />
          </mxGeometry>
        </mxCell>
        <mxCell id="ZW87_tt0cUhbGKIDtFy5-14" value="3306" style="edgeLabel;html=1;align=center;verticalAlign=middle;resizable=0;points=[];" vertex="1" connectable="0" parent="ZW87_tt0cUhbGKIDtFy5-12">
          <mxGeometry x="-0.59" y="3" relative="1" as="geometry">
            <mxPoint as="offset" />
          </mxGeometry>
        </mxCell>
        <mxCell id="ZW87_tt0cUhbGKIDtFy5-9" value="&lt;div style=&quot;background-color:#1e1f22;color:#bcbec4&quot;&gt;&lt;pre style=&quot;font-family:&#39;JetBrains Mono&#39;,monospace;font-size:16.5pt;&quot;&gt;&lt;span style=&quot;color:#cf8e6d;&quot;&gt;pv211.db &lt;/span&gt;&lt;/pre&gt;&lt;/div&gt;" style="rounded=0;whiteSpace=wrap;html=1;" vertex="1" parent="1">
          <mxGeometry x="500" y="510" width="460" height="60" as="geometry" />
        </mxCell>
        <mxCell id="ZW87_tt0cUhbGKIDtFy5-10" value="" style="shape=cylinder3;whiteSpace=wrap;html=1;boundedLbl=1;backgroundOutline=1;size=15;" vertex="1" parent="1">
          <mxGeometry x="890" y="520" width="60" height="40" as="geometry" />
        </mxCell>
        <mxCell id="ZW87_tt0cUhbGKIDtFy5-11" value="Actor" style="shape=umlActor;verticalLabelPosition=bottom;verticalAlign=top;html=1;outlineConnect=0;" vertex="1" parent="1">
          <mxGeometry x="824" y="650" width="30" height="60" as="geometry" />
        </mxCell>
        <mxCell id="ZW87_tt0cUhbGKIDtFy5-21" style="edgeStyle=orthogonalEdgeStyle;rounded=0;orthogonalLoop=1;jettySize=auto;html=1;" edge="1" parent="1" source="ZW87_tt0cUhbGKIDtFy5-15">
          <mxGeometry relative="1" as="geometry">
            <mxPoint x="190" y="230" as="targetPoint" />
          </mxGeometry>
        </mxCell>
        <mxCell id="ZW87_tt0cUhbGKIDtFy5-22" value="8000 : 8000" style="edgeLabel;html=1;align=center;verticalAlign=middle;resizable=0;points=[];" vertex="1" connectable="0" parent="ZW87_tt0cUhbGKIDtFy5-21">
          <mxGeometry x="-0.0523" y="-2" relative="1" as="geometry">
            <mxPoint as="offset" />
          </mxGeometry>
        </mxCell>
        <mxCell id="ZW87_tt0cUhbGKIDtFy5-15" value="php-cli" style="shape=process;whiteSpace=wrap;html=1;backgroundOutline=1;" vertex="1" parent="1">
          <mxGeometry x="470" y="340" width="490" height="120" as="geometry" />
        </mxCell>
        <mxCell id="ZW87_tt0cUhbGKIDtFy5-16" value="ext_mysqli" style="shape=process;whiteSpace=wrap;html=1;backgroundOutline=1;" vertex="1" parent="1">
          <mxGeometry x="810" y="390" width="89" height="30" as="geometry" />
        </mxCell>
        <mxCell id="ZW87_tt0cUhbGKIDtFy5-17" value="lib6" style="shape=process;whiteSpace=wrap;html=1;backgroundOutline=1;fillColor=#60a917;fontColor=#ffffff;strokeColor=#2D7600;" vertex="1" parent="1">
          <mxGeometry x="810" y="430" width="89" height="20" as="geometry" />
        </mxCell>
        <mxCell id="ZW87_tt0cUhbGKIDtFy5-19" style="edgeStyle=orthogonalEdgeStyle;rounded=0;orthogonalLoop=1;jettySize=auto;html=1;entryX=0.418;entryY=0.008;entryDx=0;entryDy=0;entryPerimeter=0;" edge="1" parent="1" source="ZW87_tt0cUhbGKIDtFy5-2" target="ZW87_tt0cUhbGKIDtFy5-15">
          <mxGeometry relative="1" as="geometry">
            <Array as="points">
              <mxPoint x="380" y="230" />
              <mxPoint x="675" y="230" />
            </Array>
          </mxGeometry>
        </mxCell>
        <mxCell id="ZW87_tt0cUhbGKIDtFy5-20" value="volumes: ./src : /var/www&amp;nbsp;" style="edgeLabel;html=1;align=center;verticalAlign=middle;resizable=0;points=[];" vertex="1" connectable="0" parent="ZW87_tt0cUhbGKIDtFy5-19">
          <mxGeometry x="-0.3725" y="3" relative="1" as="geometry">
            <mxPoint as="offset" />
          </mxGeometry>
        </mxCell>
        <mxCell id="ZW87_tt0cUhbGKIDtFy5-24" style="edgeStyle=orthogonalEdgeStyle;rounded=0;orthogonalLoop=1;jettySize=auto;html=1;" edge="1" parent="1" source="ZW87_tt0cUhbGKIDtFy5-23" target="ZW87_tt0cUhbGKIDtFy5-4">
          <mxGeometry relative="1" as="geometry" />
        </mxCell>
        <mxCell id="ZW87_tt0cUhbGKIDtFy5-23" value="RocketServer" style="ellipse;shape=cloud;whiteSpace=wrap;html=1;" vertex="1" parent="1">
          <mxGeometry x="899" y="130" width="120" height="80" as="geometry" />
        </mxCell>
      </root>
    </mxGraphModel>
  </diagram>
</mxfile>
